<svg width="32" height="32" viewBox="0 0 32 32" fill="none" xmlns="http://www.w3.org/2000/svg">
  <defs>
    <linearGradient id="gradient" x1="0%" y1="0%" x2="100%" y2="0%">
      <stop offset="0%" style="stop-color:#3b82f6;stop-opacity:1" />
      <stop offset="100%" style="stop-color:#4f46e5;stop-opacity:1" />
    </linearGradient>
  </defs>
  
  <!-- Background with rounded corners -->
  <rect width="32" height="32" rx="6" fill="url(#gradient)"/>
  
  <!-- Brain icon (simplified version of Lucide Brain icon) -->
  <path d="M9.5 12.5c0-1.1.9-2 2-2h9c1.1 0 2 .9 2 2v7c0 1.1-.9 2-2 2h-9c-1.1 0-2-.9-2-2v-7z" fill="white" opacity="0.9"/>
  <path d="M12 14.5c0-.6.4-1 1-1h6c.6 0 1 .4 1 1v3c0 .6-.4 1-1 1h-6c-.6 0-1-.4-1-1v-3z" fill="white" opacity="0.7"/>
  <circle cx="14.5" cy="16" r="0.8" fill="white" opacity="0.8"/>
  <circle cx="17.5" cy="16" r="0.8" fill="white" opacity="0.8"/>
  <path d="M13.5 18.5c0-.6.4-1 1-1h3c.6 0 1 .4 1 1s-.4 1-1 1h-3c-.6 0-1-.4-1-1z" fill="white" opacity="0.6"/>
  
  <!-- Brain folds/details -->
  <path d="M11 13.5h2v1h-2z" fill="white" opacity="0.5"/>
  <path d="M19 13.5h2v1h-2z" fill="white" opacity="0.5"/>
  <path d="M11 17.5h2v1h-2z" fill="white" opacity="0.5"/>
  <path d="M19 17.5h2v1h-2z" fill="white" opacity="0.5"/>
</svg> 